<mxfile host="app.diagrams.net" modified="2020-11-23T07:08:51.957Z" agent="5.0 (Windows NT 6.1; Win64; x64) AppleWebKit/537.36 (KHTML, like Gecko) Chrome/86.0.4240.198 Safari/537.36" etag="NDTrIKBd04Q79UwQ4V-Q" version="13.10.0" type="github">
  <diagram id="C5RBs43oDa-KdzZeNtuy" name="Page-1">
    <mxGraphModel dx="868" dy="482" grid="1" gridSize="10" guides="1" tooltips="1" connect="1" arrows="1" fold="1" page="1" pageScale="1" pageWidth="827" pageHeight="1169" math="0" shadow="0">
      <root>
        <mxCell id="WIyWlLk6GJQsqaUBKTNV-0" />
        <mxCell id="WIyWlLk6GJQsqaUBKTNV-1" parent="WIyWlLk6GJQsqaUBKTNV-0" />
        <mxCell id="oiTO6Ldvvnokbyj64V5V-10" style="edgeStyle=orthogonalEdgeStyle;rounded=0;orthogonalLoop=1;jettySize=auto;html=1;exitX=0.5;exitY=1;exitDx=0;exitDy=0;entryX=0.5;entryY=0;entryDx=0;entryDy=0;" edge="1" parent="WIyWlLk6GJQsqaUBKTNV-1" source="WIyWlLk6GJQsqaUBKTNV-3" target="oiTO6Ldvvnokbyj64V5V-0">
          <mxGeometry relative="1" as="geometry" />
        </mxCell>
        <mxCell id="WIyWlLk6GJQsqaUBKTNV-3" value="&lt;div style=&quot;text-align: left&quot;&gt;&lt;span&gt;&lt;font style=&quot;font-size: 16px&quot;&gt;&lt;b&gt;交通发布段车速状态数据&lt;/b&gt;&lt;/font&gt;&lt;/span&gt;&lt;/div&gt;&lt;div style=&quot;text-align: left&quot;&gt;&lt;span&gt;&lt;font size=&quot;3&quot;&gt;&lt;b&gt;全市SCATS线圈数据&lt;/b&gt;&lt;/font&gt;&lt;/span&gt;&lt;/div&gt;&lt;div style=&quot;text-align: left&quot;&gt;&lt;span&gt;&lt;font size=&quot;3&quot;&gt;&lt;b&gt;快速路交通数据&lt;/b&gt;&lt;/font&gt;&lt;/span&gt;&lt;/div&gt;" style="rounded=1;whiteSpace=wrap;html=1;fontSize=12;glass=0;strokeWidth=1;shadow=0;" parent="WIyWlLk6GJQsqaUBKTNV-1" vertex="1">
          <mxGeometry x="50" y="160" width="190" height="70" as="geometry" />
        </mxCell>
        <mxCell id="oiTO6Ldvvnokbyj64V5V-7" style="edgeStyle=orthogonalEdgeStyle;rounded=0;orthogonalLoop=1;jettySize=auto;html=1;exitX=1;exitY=0.5;exitDx=0;exitDy=0;" edge="1" parent="WIyWlLk6GJQsqaUBKTNV-1" source="oiTO6Ldvvnokbyj64V5V-0">
          <mxGeometry relative="1" as="geometry">
            <mxPoint x="605" y="290" as="targetPoint" />
          </mxGeometry>
        </mxCell>
        <mxCell id="oiTO6Ldvvnokbyj64V5V-0" value="&lt;font style=&quot;font-size: 14px&quot;&gt;&lt;b&gt;全路网交通&lt;br&gt;流数据接口&lt;/b&gt;&lt;/font&gt;" style="rounded=1;whiteSpace=wrap;html=1;" vertex="1" parent="WIyWlLk6GJQsqaUBKTNV-1">
          <mxGeometry x="90" y="270" width="110" height="40" as="geometry" />
        </mxCell>
        <mxCell id="oiTO6Ldvvnokbyj64V5V-9" style="edgeStyle=orthogonalEdgeStyle;rounded=0;orthogonalLoop=1;jettySize=auto;html=1;exitX=1;exitY=0.5;exitDx=0;exitDy=0;entryX=0.5;entryY=1;entryDx=0;entryDy=0;" edge="1" parent="WIyWlLk6GJQsqaUBKTNV-1" source="oiTO6Ldvvnokbyj64V5V-1">
          <mxGeometry relative="1" as="geometry">
            <mxPoint x="665" y="320" as="targetPoint" />
          </mxGeometry>
        </mxCell>
        <mxCell id="oiTO6Ldvvnokbyj64V5V-1" value="&lt;font style=&quot;font-size: 16px&quot;&gt;&lt;b&gt;典型路口视频数据&lt;/b&gt;&lt;/font&gt;" style="rounded=1;whiteSpace=wrap;html=1;fontSize=16;" vertex="1" parent="WIyWlLk6GJQsqaUBKTNV-1">
          <mxGeometry x="70" y="360" width="160" height="30" as="geometry" />
        </mxCell>
        <mxCell id="oiTO6Ldvvnokbyj64V5V-12" style="edgeStyle=orthogonalEdgeStyle;rounded=0;orthogonalLoop=1;jettySize=auto;html=1;exitX=0;exitY=0.5;exitDx=0;exitDy=0;entryX=1;entryY=0.5;entryDx=0;entryDy=0;" edge="1" parent="WIyWlLk6GJQsqaUBKTNV-1" source="oiTO6Ldvvnokbyj64V5V-2" target="WIyWlLk6GJQsqaUBKTNV-3">
          <mxGeometry relative="1" as="geometry" />
        </mxCell>
        <mxCell id="oiTO6Ldvvnokbyj64V5V-2" value="&lt;div&gt;&lt;/div&gt;&lt;font style=&quot;font-size: 18px&quot;&gt;&lt;div&gt;&lt;/div&gt;&lt;b&gt;综合交通模型数据&lt;/b&gt;&lt;br&gt;&lt;/font&gt;" style="rounded=1;whiteSpace=wrap;html=1;align=center;" vertex="1" parent="WIyWlLk6GJQsqaUBKTNV-1">
          <mxGeometry x="342" y="175" width="166" height="40" as="geometry" />
        </mxCell>
        <mxCell id="oiTO6Ldvvnokbyj64V5V-3" value="&lt;font style=&quot;font-size: 14px&quot;&gt;&lt;b&gt;车速、车流量、车型&lt;/b&gt;&lt;/font&gt;" style="rounded=1;whiteSpace=wrap;html=1;" vertex="1" parent="WIyWlLk6GJQsqaUBKTNV-1">
          <mxGeometry x="342" y="259" width="150" height="30" as="geometry" />
        </mxCell>
        <mxCell id="oiTO6Ldvvnokbyj64V5V-6" style="edgeStyle=orthogonalEdgeStyle;rounded=0;orthogonalLoop=1;jettySize=auto;html=1;exitX=0.5;exitY=1;exitDx=0;exitDy=0;entryX=0.5;entryY=0;entryDx=0;entryDy=0;" edge="1" parent="WIyWlLk6GJQsqaUBKTNV-1" source="oiTO6Ldvvnokbyj64V5V-5">
          <mxGeometry relative="1" as="geometry">
            <mxPoint x="665" y="260" as="targetPoint" />
          </mxGeometry>
        </mxCell>
        <mxCell id="oiTO6Ldvvnokbyj64V5V-5" value="&lt;div style=&quot;text-align: left&quot;&gt;&lt;span style=&quot;font-size: 14px&quot;&gt;&lt;b&gt;车辆技术分布&lt;/b&gt;&lt;/span&gt;&lt;/div&gt;&lt;font style=&quot;font-size: 14px&quot;&gt;&lt;b&gt;&lt;div style=&quot;text-align: left&quot;&gt;&lt;span&gt;车辆工况&lt;/span&gt;&lt;/div&gt;&lt;div style=&quot;text-align: left&quot;&gt;&lt;span&gt;修正因子&lt;/span&gt;&lt;/div&gt;&lt;div style=&quot;text-align: left&quot;&gt;&lt;span&gt;环保政策&lt;/span&gt;&lt;/div&gt;&lt;/b&gt;&lt;/font&gt;" style="rounded=1;whiteSpace=wrap;html=1;" vertex="1" parent="WIyWlLk6GJQsqaUBKTNV-1">
          <mxGeometry x="610" y="160" width="110" height="70" as="geometry" />
        </mxCell>
        <mxCell id="oiTO6Ldvvnokbyj64V5V-8" value="&lt;font style=&quot;font-size: 14px&quot;&gt;&lt;b&gt;车排放技术匹配校正&lt;/b&gt;&lt;/font&gt;" style="rounded=1;whiteSpace=wrap;html=1;" vertex="1" parent="WIyWlLk6GJQsqaUBKTNV-1">
          <mxGeometry x="342" y="344" width="150" height="30" as="geometry" />
        </mxCell>
        <mxCell id="oiTO6Ldvvnokbyj64V5V-11" value="&lt;font style=&quot;font-size: 14px&quot;&gt;&lt;b&gt;路网匹配&lt;/b&gt;&lt;/font&gt;" style="rounded=1;whiteSpace=wrap;html=1;" vertex="1" parent="WIyWlLk6GJQsqaUBKTNV-1">
          <mxGeometry x="260" y="164" width="60" height="30" as="geometry" />
        </mxCell>
        <mxCell id="oiTO6Ldvvnokbyj64V5V-13" value="&lt;font style=&quot;font-size: 14px&quot;&gt;&lt;b&gt;定期更新&lt;/b&gt;&lt;/font&gt;" style="rounded=1;whiteSpace=wrap;html=1;" vertex="1" parent="WIyWlLk6GJQsqaUBKTNV-1">
          <mxGeometry x="387" y="376" width="60" height="30" as="geometry" />
        </mxCell>
        <mxCell id="oiTO6Ldvvnokbyj64V5V-14" value="&lt;b&gt;&lt;font style=&quot;font-size: 14px&quot;&gt;实时交通发布段路网&lt;/font&gt;&lt;/b&gt;" style="rounded=1;whiteSpace=wrap;html=1;" vertex="1" parent="WIyWlLk6GJQsqaUBKTNV-1">
          <mxGeometry x="70" y="100" width="150" height="30" as="geometry" />
        </mxCell>
        <mxCell id="oiTO6Ldvvnokbyj64V5V-15" value="&lt;b&gt;&lt;font style=&quot;font-size: 14px&quot;&gt;交通模型路网&lt;/font&gt;&lt;/b&gt;" style="rounded=1;whiteSpace=wrap;html=1;" vertex="1" parent="WIyWlLk6GJQsqaUBKTNV-1">
          <mxGeometry x="350" y="100" width="150" height="30" as="geometry" />
        </mxCell>
        <mxCell id="oiTO6Ldvvnokbyj64V5V-16" value="&lt;b&gt;&lt;font style=&quot;font-size: 14px&quot;&gt;机动车污染物排放路网&lt;/font&gt;&lt;/b&gt;" style="rounded=1;whiteSpace=wrap;html=1;" vertex="1" parent="WIyWlLk6GJQsqaUBKTNV-1">
          <mxGeometry x="590" y="100" width="150" height="30" as="geometry" />
        </mxCell>
        <mxCell id="oiTO6Ldvvnokbyj64V5V-20" value="" style="endArrow=none;dashed=1;html=1;dashPattern=1 3;strokeWidth=2;" edge="1" parent="WIyWlLk6GJQsqaUBKTNV-1">
          <mxGeometry width="50" height="50" relative="1" as="geometry">
            <mxPoint x="540" y="406" as="sourcePoint" />
            <mxPoint x="540" y="96" as="targetPoint" />
          </mxGeometry>
        </mxCell>
        <mxCell id="oiTO6Ldvvnokbyj64V5V-21" value="" style="endArrow=none;dashed=1;html=1;dashPattern=1 3;strokeWidth=2;" edge="1" parent="WIyWlLk6GJQsqaUBKTNV-1">
          <mxGeometry width="50" height="50" relative="1" as="geometry">
            <mxPoint x="290" y="408" as="sourcePoint" />
            <mxPoint x="290" y="98" as="targetPoint" />
          </mxGeometry>
        </mxCell>
        <mxCell id="oiTO6Ldvvnokbyj64V5V-22" value="&lt;font style=&quot;font-size: 18px&quot;&gt;&lt;b&gt;机动车污染物排放模型&lt;/b&gt;&lt;/font&gt;" style="shape=process;whiteSpace=wrap;html=1;backgroundOutline=1;" vertex="1" parent="WIyWlLk6GJQsqaUBKTNV-1">
          <mxGeometry x="605" y="260" width="120" height="60" as="geometry" />
        </mxCell>
      </root>
    </mxGraphModel>
  </diagram>
</mxfile>
